Coordinates
version=1
nRows=16
nColumns=40
inDegrees=yes

Units are S.I. units (second, meters, Newtons, ...)
Angles are in degrees.

endheader
time	pelvis_tilt	pelvis_list	pelvis_rotation	pelvis_tx	pelvis_ty	pelvis_tz	hip_flexion_r	hip_adduction_r	hip_rotation_r	knee_angle_r	knee_angle_r_beta	ankle_angle_r	subtalar_angle_r	mtp_angle_r	hip_flexion_l	hip_adduction_l	hip_rotation_l	knee_angle_l	knee_angle_l_beta	ankle_angle_l	subtalar_angle_l	mtp_angle_l	lumbar_extension	lumbar_bending	lumbar_rotation	arm_flex_r	arm_add_r	arm_rot_r	elbow_flex_r	pro_sup_r	wrist_flex_r	wrist_dev_r	arm_flex_l	arm_add_l	arm_rot_l	elbow_flex_l	pro_sup_l	wrist_flex_l	wrist_dev_l
      1.13000000	     -2.84221663	     -6.26529015	     -0.95675694	      0.99563257	      0.93367519	      0.55750412	     10.62468225	      5.29264132	    -18.16996710	     14.37619418	     14.37619418	      8.78439101	      5.06823408	     -3.50507233	     31.58043142	    -15.42202482	      0.76949653	     63.10324096	     63.10324096	     10.27314353	    -18.38793936	     12.64536239	    -11.30240137	      7.84360420	      3.83232062	     17.14439455	    -16.06024445	     -4.33359320	     45.98558333	     45.83404084	      0.00000000	      0.00000000	      5.11599862	     -7.33512572	    -11.16188144	     52.05977072	     46.28069050	      0.00000000	      0.00000000
      1.14150000	     -2.95168569	     -6.34023042	     -0.81666196	      0.99384443	      0.93371835	      0.55794438	     10.00354185	      5.47508041	    -18.31347353	     13.86062670	     13.86062670	      8.95082869	      5.37232137	     -3.80895705	     32.70197614	    -15.52335347	      0.60163897	     60.89757162	     60.89757162	     10.27814250	    -18.53581757	     12.72037152	    -11.27746851	      7.88497181	      3.59163568	     19.12191020	    -16.29201644	     -3.77129696	     48.47358025	     45.71729065	      0.00000000	      0.00000000	      4.66940685	     -7.11587571	    -11.19400718	     47.79299696	     46.31227051	      0.00000000	      0.00000000
      1.15300000	     -3.02650063	     -6.41619226	     -0.67885633	      0.99210564	      0.93372464	      0.55833759	      9.33956805	      5.68025046	    -18.33291649	     13.31616162	     13.31616162	      9.12630604	      5.51882312	     -4.05019108	     33.60072376	    -15.57127669	      0.42997074	     58.45399637	     58.45399637	     10.30574437	    -18.61771973	     13.02329794	    -11.31530133	      7.92848116	      3.52897219	     20.95496797	    -16.64924603	     -3.27397505	     51.27111821	     45.59790983	      0.00000000	      0.00000000	      4.47771847	     -6.85236632	    -11.08004437	     43.26546690	     46.33900628	      0.00000000	      0.00000000
      1.16450000	     -3.09292110	     -6.49246274	     -0.56908013	      0.99039671	      0.93367134	      0.55867504	      8.68982695	      5.87395736	    -18.35575294	     12.80649376	     12.80649376	      9.30498588	      5.71842978	     -4.30588915	     34.31591753	    -15.56629246	      0.25957750	     55.80037684	     55.80037684	     10.33709772	    -18.64849552	     13.53228855	    -11.36585916	      7.97786856	      3.56899091	     22.69705074	    -16.97599905	     -3.02483795	     54.10569991	     45.49349320	      0.00000000	      0.00000000	      4.37919658	     -6.58521403	    -10.98862346	     38.80008401	     46.38115320	      0.00000000	      0.00000000
      1.17600000	     -3.16957878	     -6.55281430	     -0.47358341	      0.98868328	      0.93347994	      0.55893100	      8.06355149	      6.04327674	    -18.37884964	     12.30655259	     12.30655259	      9.51010596	      5.94491439	     -4.54900746	     34.89133749	    -15.48094118	      0.12783675	     52.97232826	     52.97232826	     10.30891995	    -18.62131152	     13.97419430	    -11.41528424	      7.99613091	      3.56384688	     24.49597214	    -17.21326557	     -2.87815196	     56.82655865	     45.40344823	      0.00000000	      0.00000000	      4.19981897	     -6.34660857	    -10.96248483	     34.70581469	     46.42364752	      0.00000000	      0.00000000
      1.18750000	     -3.25110618	     -6.60602233	     -0.39578817	      0.98707185	      0.93315871	      0.55910325	      7.46727443	      6.19630151	    -18.34602845	     11.86665337	     11.86665337	      9.78100569	      6.10076845	     -4.63881597	     35.32806966	    -15.32457178	      0.07757581	     49.99802165	     49.99802165	     10.23659400	    -18.53059830	     14.35529545	    -11.49364731	      7.97875444	      3.13615539	     26.69271532	    -16.90097029	     -2.97623213	     58.86583111	     45.34790936	      0.00000000	      0.00000000	      2.94426349	     -6.31571134	    -10.91514250	     32.84219192	     46.40780425	      0.00000000	      0.00000000
      1.19900000	     -3.36959069	     -6.63326456	     -0.34751167	      0.98541467	      0.93270585	      0.55916222	      6.92735930	      6.30530686	    -18.31930253	     11.44873107	     11.44873107	     10.06213654	      6.29747368	     -4.78215234	     35.67935486	    -15.08316135	      0.09766231	     46.89489975	     46.89489975	     10.10885977	    -18.32489289	     14.62297276	    -11.52951621	      7.93141748	      2.83621522	     28.70730285	    -16.67797282	     -2.93353844	     61.04017064	     45.28181036	      0.00000000	      0.00000000	      1.88860212	     -6.26038330	    -10.87159585	     30.83723948	     46.39425353	      0.00000000	      0.00000000
      1.21050000	     -3.55216068	     -6.78438995	     -0.30046003	      0.98382274	      0.93192553	      0.55908160	      6.44334504	      6.52501630	    -18.40561668	     11.01577750	     11.01577750	     10.29347946	      6.70527790	     -5.26468671	     36.03988201	    -14.93581976	      0.23824254	     43.73322801	     43.73322801	      9.66270481	    -17.91308185	     13.75568269	    -11.48950519	      8.08124659	      3.19336069	     29.70810186	    -17.45011429	     -2.52278560	     65.22409419	     45.13828520	      0.00000000	      0.00000000	      2.06752155	     -5.94831142	    -11.00691990	     26.57441155	     46.46316774	      0.00000000	      0.00000000
      1.22200000	     -3.72007273	     -6.77325310	     -0.31888078	      0.98224032	      0.93124532	      0.55902518	      6.01034109	      6.57041025	    -18.30846718	     10.71671649	     10.71671649	     10.59973650	      6.77386529	     -5.38878737	     36.22553803	    -14.60344960	      0.39121124	     40.51412472	     40.51412472	      9.54831870	    -17.22431524	     13.91586376	    -11.45249173	      7.90401120	      3.09258172	     31.56620555	    -17.18587885	     -2.71568931	     67.26445876	     45.08725455	      0.00000000	      0.00000000	      0.78886769	     -5.91639911	    -11.07218479	     25.47868378	     46.46136757	      0.00000000	      0.00000000
      1.23350000	     -3.90085483	     -6.90900897	     -0.29565010	      0.98078593	      0.93033284	      0.55874911	      5.52846433	      6.76736828	    -18.30452701	     10.29727699	     10.29727699	     10.78841589	      7.04122326	     -5.84142949	     36.33839843	    -14.40742096	      0.59707721	     37.20074902	     37.20074902	      8.70880318	    -16.36913935	     11.81321938	    -11.48716423	      8.02662100	      3.61780779	     31.99416319	    -17.71880581	     -3.29757597	     72.58352154	     44.96696820	      0.00000000	      0.00000000	      0.44027655	     -5.71409319	    -11.66031185	     23.04088126	     46.63203187	      0.00000000	      0.00000000
      1.24500000	     -4.06376770	     -6.96525816	     -0.29881753	      0.97942346	      0.92945028	      0.55841935	      5.06939244	      6.86320934	    -18.20829147	      9.99547076	      9.99547076	     11.13551803	      7.20651297	     -5.97499583	     36.41404738	    -14.16562220	      0.73472959	     34.12643020	     34.12643020	      8.74161408	    -14.89277426	     11.88996833	    -11.45329460	      7.99143558	      3.22978354	     33.77469079	    -17.21573631	     -3.38213752	     75.03365174	     44.90187638	      0.00000000	      0.00000000	     -0.98272437	     -5.75391631	    -11.75764337	     22.26330980	     46.63363300	      0.00000000	      0.00000000
      1.25650000	     -4.22715538	     -7.04423949	     -0.29908650	      0.97822567	      0.92852684	      0.55803323	      4.58266583	      6.98360330	    -18.13553649	      9.66134785	      9.66134785	     11.46581975	      7.38647558	     -6.11081235	     36.43806998	    -13.99394420	      0.70492783	     31.19080453	     31.19080453	      8.71288566	    -13.12647520	     11.83720223	    -11.41940655	      7.97272818	      2.88645362	     35.24130631	    -16.77220224	     -3.39378561	     78.16211466	     44.81206603	      0.00000000	      0.00000000	     -2.40901559	     -5.78404778	    -11.87533934	     21.69050162	     46.63756226	      0.00000000	      0.00000000
      1.26800000	     -4.43197686	     -7.25700176	     -0.25928965	      0.97716263	      0.92739882	      0.55751623	      4.08516324	      7.25770894	    -18.10151110	      9.22683999	      9.22683999	     11.70853656	      7.60906284	     -6.29449982	     36.56428233	    -13.96476545	      0.62578913	     28.57865554	     28.57865554	      8.47264966	    -11.18113914	     11.06459507	    -11.45080785	      8.11192192	      3.34645130	     35.48141847	    -17.41077205	     -3.75419359	     83.94403978	     44.66513289	      0.00000000	      0.00000000	     -3.51080280	     -5.64059620	    -12.12540825	     21.93441624	     46.67846430	      0.00000000	      0.00000000
      1.27950000	     -4.60086331	     -7.36647493	     -0.28707449	      0.97630920	      0.92637815	      0.55695681	      3.61522303	      7.39070692	    -17.97127164	      8.96395554	      8.96395554	     12.03037873	      7.68876776	     -6.39397782	     36.55735028	    -13.85429134	      0.32195432	     26.21609412	     26.21609412	      8.28708751	     -9.53777521	     11.08101369	    -11.36796017	      8.16402809	      3.38526492	     36.54109838	    -17.06251761	     -4.22661560	     87.47174771	     44.59490776	      0.00000000	      0.00000000	     -4.74202432	     -5.72436054	    -12.11316195	     21.59817595	     46.66101511	      0.00000000	      0.00000000
      1.29100000	     -4.67711541	     -7.41044917	     -0.27601771	      0.97569013	      0.92552576	      0.55615095	      3.05258042	      7.42746007	    -17.81746392	      8.75086718	      8.75086718	     12.39507553	      7.74772996	     -6.45204972	     36.39980424	    -13.65319925	     -0.14612205	     24.17137098	     24.17137098	      8.09525327	     -8.13448969	     11.33866568	    -11.35517144	      8.12516002	      3.11651211	     37.66918635	    -16.60749522	     -4.37696727	     90.51467687	     44.51927138	      0.00000000	      0.00000000	     -6.06856101	     -5.77681195	    -12.09177216	     21.34642509	     46.63109727	      0.00000000	      0.00000000
      1.30250000	     -4.78386362	     -7.48738025	     -0.26392660	      0.97525577	      0.92459997	      0.55526983	      2.49798120	      7.50043928	    -17.68988865	      8.50985224	      8.50985224	     12.75043762	      7.81044712	     -6.44868732	     36.28722923	    -13.50068217	     -0.82159625	     22.55058076	     22.55058076	      7.80872325	     -7.00935592	     11.60447161	    -11.31674398	      8.13620712	      2.90959122	     38.58275676	    -16.18734066	     -4.49732691	     93.96450706	     44.42931156	      0.00000000	      0.00000000	     -7.34294161	     -5.78390537	    -12.04980510	     21.33536274	     46.59298355	      0.00000000	      0.00000000
